<svg xmlns="http://www.w3.org/2000/svg" viewBox="0 0 32 32" width="32" height="32">
  <rect width="32" height="32" fill="#1a1a1a"/>

  <!-- Top stroke: layered paths to simulate brush pressure variation -->
  <path d="M3 8.5 C4.5 7.2, 7 8.8, 10 8.0 C13 7.2, 17 9.2, 21 8.4 C24 7.8, 27 8.6, 29.5 7.8"
    stroke="white" stroke-width="1" stroke-linecap="round" fill="none"/>
  <path d="M3.5 9.0 C5 7.8, 8 9.5, 11 8.6 C14 7.8, 18 10.0, 22 9.0 C25 8.2, 27.5 9.2, 29 8.2"
    stroke="white" stroke-width="2.8" stroke-linecap="round" fill="none"/>
  <path d="M4 9.8 C6 8.5, 9 10.2, 13 9.2 C16 8.4, 20 10.5, 23 9.4 C26 8.5, 28 9.5, 29 8.8"
    stroke="white" stroke-width="1.5" stroke-linecap="round" fill="none"/>

  <!-- Middle stroke: uneven, thicker on left, trails off right -->
  <path d="M3 16.5 C5 15.4, 8 17.2, 12 16.0 C15 15.2, 18 16.8, 22 16.2 C25 15.7, 28 16.5, 29.5 16.8"
    stroke="white" stroke-width="3.4" stroke-linecap="round" fill="none"/>
  <path d="M3.5 16.0 C5.5 15.0, 9 16.5, 12.5 15.6 C16 14.8, 19 16.2, 23 15.5 C26 15.0, 28.5 16.0, 29.5 15.5"
    stroke="white" stroke-width="1.2" stroke-linecap="round" fill="none"/>
  <path d="M3 17.2 C6 16.0, 10 17.8, 14 16.8 C17 16.0, 20 17.2, 24 16.8 C27 16.4, 29 17.0, 29.5 17.5"
    stroke="white" stroke-width="0.8" stroke-linecap="round" fill="none"/>

  <!-- Bottom stroke: thin at start, swells, rough end -->
  <path d="M4.5 24.0 C6 22.8, 9 24.5, 13 23.2 C16 22.3, 19 24.0, 22 23.2 C24.5 22.5, 27 23.8, 28.5 23.0"
    stroke="white" stroke-width="2.2" stroke-linecap="round" fill="none"/>
  <path d="M5 24.6 C7.5 23.5, 11 25.0, 14 24.0 C17 23.2, 20 24.5, 23 23.8 C25.5 23.2, 27.5 24.2, 28.5 23.5"
    stroke="white" stroke-width="1.0" stroke-linecap="round" fill="none"/>
  <path d="M5.5 23.4 C8 22.5, 12 24.0, 15 23.0 C18 22.2, 21 23.6, 24 22.8 C26 22.2, 28 23.2, 28.5 22.5"
    stroke="white" stroke-width="0.5" stroke-linecap="round" fill="none"/>
</svg>
